NFL Top 10 E92 Running Backs Of The 80s HDTV x264 CoLLuSioN

[img]http://s13.postimage.org/4jo1t3vyd/nfltop10.png[/img]

A countdown of the most famous RBs of the 1980s. Examples: Marcus Allen, John Riggins and Walter Payton. 

Aired October 5th, 2012


[img]http://s18.postimage.org/3o9w8xiqf/NFL_Top_10_E92_Running_Backs_Of_The_80s_mp4_thum.jpg[/img]



General 
Complete name : NFL Top 10 E92 Running Backs Of The 80s.mp4 
Format : MPEG-4 
Format profile : Base Media / Version 2 
Codec ID : mp42 
File size : 395 MiB 
Duration : 44mn 33s 
Overall bit rate mode : Variable 
Overall bit rate : 1 240 Kbps 
Encoded date : UTC 2012-10-06 18:45:41 
Tagged date : UTC 2012-10-06 19:15:49 
Writing application : HandBrake 4999svn 2012100401 

Video 
ID : 1 
Format : AVC 
Format/Info : Advanced Video Codec 
Format profile : High@L3.0 
Format settings, CABAC : Yes 
Format settings, ReFrames : 4 frames 
Codec ID : avc1 
Codec ID/Info : Advanced Video Coding 
Duration : 44mn 33s 
Bit rate mode : Variable 
Bit rate : 1 106 Kbps 
Width : 720 pixels 
Height : 400 pixels 
Display aspect ratio : 16:9 
Frame rate mode : Variable 
Frame rate : 29.970 fps 
Minimum frame rate : 15.949 fps 
Maximum frame rate : 30.303 fps 
Color space : YUV 
Chroma subsampling : 4:2:0 
Bit depth : 8 bits 
Scan type : Progressive 
Bits/(Pixel*Frame) : 0.128 
Stream size : 352 MiB (89%) 
Writing library : x264 core 125 
Encoding settings : cabac=1 / ref=4 / deblock=1:-3:-3 / analyse=0x3:0x133 / me=umh / subme=7 / psy=1 / psy_rd=1.00:0.15 / mixed_ref=1 / me_range=32 / chroma_me=1 / trellis=1 / 8x8dct=1 / cqm=0 / deadzone=21,11 / fast_pskip=1 / chroma_qp_offset=-3 / threads=6 / lookahead_threads=1 / sliced_threads=0 / nr=0 / decimate=1 / interlaced=0 / bluray_compat=0 / constrained_intra=0 / bframes=4 / b_pyramid=2 / b_adapt=2 / b_bias=0 / direct=3 / weightb=1 / open_gop=0 / weightp=2 / keyint=300 / keyint_min=30 / scenecut=40 / intra_refresh=0 / rc_lookahead=50 / rc=crf / mbtree=1 / crf=24.0 / qcomp=0.60 / qpmin=3 / qpmax=69 / qpstep=4 / ip_ratio=1.40 / aq=1:1.00 
Encoded date : UTC 2012-10-06 18:45:41 
Tagged date : UTC 2012-10-06 19:15:49 
Color primaries : BT.601 NTSC 
Transfer characteristics : BT.709 
Matrix coefficients : BT.601 

Audio 
ID : 2 
Format : AAC 
Format/Info : Advanced Audio Codec 
Format profile : LC 
Codec ID : 40 
Duration : 44mn 33s 
Bit rate mode : Variable 
Bit rate : 128 Kbps 
Maximum bit rate : 181 Kbps 
Channel(s) : 2 channels 
Channel positions : Front: L R 
Sampling rate : 48.0 KHz 
Compression mode : Lossy 
Delay relative to video : 96ms 
Stream size : 40.8 MiB (10%) 
Encoded date : UTC 2012-10-06 18:45:41 
Tagged date : UTC 2012-10-06 19:15:48 
